<?xml version="1.0" encoding="utf-8" standalone="no"?>
<!DOCTYPE svg PUBLIC "-//W3C//DTD SVG 1.1//EN"
  "http://www.w3.org/Graphics/SVG/1.1/DTD/svg11.dtd">
<!-- Created with matplotlib (https://matplotlib.org/) -->
<svg height="345.6pt" version="1.1" viewBox="0 0 460.8 345.6" width="460.8pt" xmlns="http://www.w3.org/2000/svg" xmlns:xlink="http://www.w3.org/1999/xlink">
 <defs>
  <style type="text/css">
*{stroke-linecap:butt;stroke-linejoin:round;}
  </style>
 </defs>
 <g id="figure_1">
  <g id="patch_1">
   <path d="M 0 345.6 
L 460.8 345.6 
L 460.8 0 
L 0 0 
z
" style="fill:#ffffff;"/>
  </g>
  <g id="axes_1">
   <g id="patch_2">
    <path d="M 57.6 307.584 
L 414.72 307.584 
L 414.72 41.472 
L 57.6 41.472 
z
" style="fill:#ffffff;"/>
   </g>
   <g id="matplotlib.axis_1">
    <g id="xtick_1">
     <g id="line2d_1">
      <path clip-path="url(#pc9fe153cd0)" d="M 73.832727 307.584 
L 73.832727 41.472 
" style="fill:none;stroke:#b0b0b0;stroke-linecap:square;stroke-width:0.8;"/>
     </g>
     <g id="line2d_2">
      <defs>
       <path d="M 0 0 
L 0 3.5 
" id="m8b49188acc" style="stroke:#000000;stroke-width:0.8;"/>
      </defs>
      <g>
       <use style="stroke:#000000;stroke-width:0.8;" x="73.832727" xlink:href="#m8b49188acc" y="307.584"/>
      </g>
     </g>
     <g id="text_1">
      <!-- −1.00 -->
      <defs>
       <path d="M 10.59375 35.5 
L 73.1875 35.5 
L 73.1875 27.203125 
L 10.59375 27.203125 
z
" id="DejaVuSans-8722"/>
       <path d="M 12.40625 8.296875 
L 28.515625 8.296875 
L 28.515625 63.921875 
L 10.984375 60.40625 
L 10.984375 69.390625 
L 28.421875 72.90625 
L 38.28125 72.90625 
L 38.28125 8.296875 
L 54.390625 8.296875 
L 54.390625 0 
L 12.40625 0 
z
" id="DejaVuSans-49"/>
       <path d="M 10.6875 12.40625 
L 21 12.40625 
L 21 0 
L 10.6875 0 
z
" id="DejaVuSans-46"/>
       <path d="M 31.78125 66.40625 
Q 24.171875 66.40625 20.328125 58.90625 
Q 16.5 51.421875 16.5 36.375 
Q 16.5 21.390625 20.328125 13.890625 
Q 24.171875 6.390625 31.78125 6.390625 
Q 39.453125 6.390625 43.28125 13.890625 
Q 47.125 21.390625 47.125 36.375 
Q 47.125 51.421875 43.28125 58.90625 
Q 39.453125 66.40625 31.78125 66.40625 
z
M 31.78125 74.21875 
Q 44.046875 74.21875 50.515625 64.515625 
Q 56.984375 54.828125 56.984375 36.375 
Q 56.984375 17.96875 50.515625 8.265625 
Q 44.046875 -1.421875 31.78125 -1.421875 
Q 19.53125 -1.421875 13.0625 8.265625 
Q 6.59375 17.96875 6.59375 36.375 
Q 6.59375 54.828125 13.0625 64.515625 
Q 19.53125 74.21875 31.78125 74.21875 
z
" id="DejaVuSans-48"/>
      </defs>
      <g transform="translate(58.510071 322.182437)scale(0.1 -0.1)">
       <use xlink:href="#DejaVuSans-8722"/>
       <use x="83.789062" xlink:href="#DejaVuSans-49"/>
       <use x="147.412109" xlink:href="#DejaVuSans-46"/>
       <use x="179.199219" xlink:href="#DejaVuSans-48"/>
       <use x="242.822266" xlink:href="#DejaVuSans-48"/>
      </g>
     </g>
    </g>
    <g id="xtick_2">
     <g id="line2d_3">
      <path clip-path="url(#pc9fe153cd0)" d="M 114.414545 307.584 
L 114.414545 41.472 
" style="fill:none;stroke:#b0b0b0;stroke-linecap:square;stroke-width:0.8;"/>
     </g>
     <g id="line2d_4">
      <g>
       <use style="stroke:#000000;stroke-width:0.8;" x="114.414545" xlink:href="#m8b49188acc" y="307.584"/>
      </g>
     </g>
     <g id="text_2">
      <!-- −0.75 -->
      <defs>
       <path d="M 8.203125 72.90625 
L 55.078125 72.90625 
L 55.078125 68.703125 
L 28.609375 0 
L 18.3125 0 
L 43.21875 64.59375 
L 8.203125 64.59375 
z
" id="DejaVuSans-55"/>
       <path d="M 10.796875 72.90625 
L 49.515625 72.90625 
L 49.515625 64.59375 
L 19.828125 64.59375 
L 19.828125 46.734375 
Q 21.96875 47.46875 24.109375 47.828125 
Q 26.265625 48.1875 28.421875 48.1875 
Q 40.625 48.1875 47.75 41.5 
Q 54.890625 34.8125 54.890625 23.390625 
Q 54.890625 11.625 47.5625 5.09375 
Q 40.234375 -1.421875 26.90625 -1.421875 
Q 22.3125 -1.421875 17.546875 -0.640625 
Q 12.796875 0.140625 7.71875 1.703125 
L 7.71875 11.625 
Q 12.109375 9.234375 16.796875 8.0625 
Q 21.484375 6.890625 26.703125 6.890625 
Q 35.15625 6.890625 40.078125 11.328125 
Q 45.015625 15.765625 45.015625 23.390625 
Q 45.015625 31 40.078125 35.4375 
Q 35.15625 39.890625 26.703125 39.890625 
Q 22.75 39.890625 18.8125 39.015625 
Q 14.890625 38.140625 10.796875 36.28125 
z
" id="DejaVuSans-53"/>
      </defs>
      <g transform="translate(99.091889 322.182437)scale(0.1 -0.1)">
       <use xlink:href="#DejaVuSans-8722"/>
       <use x="83.789062" xlink:href="#DejaVuSans-48"/>
       <use x="147.412109" xlink:href="#DejaVuSans-46"/>
       <use x="179.199219" xlink:href="#DejaVuSans-55"/>
       <use x="242.822266" xlink:href="#DejaVuSans-53"/>
      </g>
     </g>
    </g>
    <g id="xtick_3">
     <g id="line2d_5">
      <path clip-path="url(#pc9fe153cd0)" d="M 154.996364 307.584 
L 154.996364 41.472 
" style="fill:none;stroke:#b0b0b0;stroke-linecap:square;stroke-width:0.8;"/>
     </g>
     <g id="line2d_6">
      <g>
       <use style="stroke:#000000;stroke-width:0.8;" x="154.996364" xlink:href="#m8b49188acc" y="307.584"/>
      </g>
     </g>
     <g id="text_3">
      <!-- −0.50 -->
      <g transform="translate(139.673707 322.182437)scale(0.1 -0.1)">
       <use xlink:href="#DejaVuSans-8722"/>
       <use x="83.789062" xlink:href="#DejaVuSans-48"/>
       <use x="147.412109" xlink:href="#DejaVuSans-46"/>
       <use x="179.199219" xlink:href="#DejaVuSans-53"/>
       <use x="242.822266" xlink:href="#DejaVuSans-48"/>
      </g>
     </g>
    </g>
    <g id="xtick_4">
     <g id="line2d_7">
      <path clip-path="url(#pc9fe153cd0)" d="M 195.578182 307.584 
L 195.578182 41.472 
" style="fill:none;stroke:#b0b0b0;stroke-linecap:square;stroke-width:0.8;"/>
     </g>
     <g id="line2d_8">
      <g>
       <use style="stroke:#000000;stroke-width:0.8;" x="195.578182" xlink:href="#m8b49188acc" y="307.584"/>
      </g>
     </g>
     <g id="text_4">
      <!-- −0.25 -->
      <defs>
       <path d="M 19.1875 8.296875 
L 53.609375 8.296875 
L 53.609375 0 
L 7.328125 0 
L 7.328125 8.296875 
Q 12.9375 14.109375 22.625 23.890625 
Q 32.328125 33.6875 34.8125 36.53125 
Q 39.546875 41.84375 41.421875 45.53125 
Q 43.3125 49.21875 43.3125 52.78125 
Q 43.3125 58.59375 39.234375 62.25 
Q 35.15625 65.921875 28.609375 65.921875 
Q 23.96875 65.921875 18.8125 64.3125 
Q 13.671875 62.703125 7.8125 59.421875 
L 7.8125 69.390625 
Q 13.765625 71.78125 18.9375 73 
Q 24.125 74.21875 28.421875 74.21875 
Q 39.75 74.21875 46.484375 68.546875 
Q 53.21875 62.890625 53.21875 53.421875 
Q 53.21875 48.921875 51.53125 44.890625 
Q 49.859375 40.875 45.40625 35.40625 
Q 44.1875 33.984375 37.640625 27.21875 
Q 31.109375 20.453125 19.1875 8.296875 
z
" id="DejaVuSans-50"/>
      </defs>
      <g transform="translate(180.255526 322.182437)scale(0.1 -0.1)">
       <use xlink:href="#DejaVuSans-8722"/>
       <use x="83.789062" xlink:href="#DejaVuSans-48"/>
       <use x="147.412109" xlink:href="#DejaVuSans-46"/>
       <use x="179.199219" xlink:href="#DejaVuSans-50"/>
       <use x="242.822266" xlink:href="#DejaVuSans-53"/>
      </g>
     </g>
    </g>
    <g id="xtick_5">
     <g id="line2d_9">
      <path clip-path="url(#pc9fe153cd0)" d="M 236.16 307.584 
L 236.16 41.472 
" style="fill:none;stroke:#b0b0b0;stroke-linecap:square;stroke-width:0.8;"/>
     </g>
     <g id="line2d_10">
      <g>
       <use style="stroke:#000000;stroke-width:0.8;" x="236.16" xlink:href="#m8b49188acc" y="307.584"/>
      </g>
     </g>
     <g id="text_5">
      <!-- 0.00 -->
      <g transform="translate(225.027187 322.182437)scale(0.1 -0.1)">
       <use xlink:href="#DejaVuSans-48"/>
       <use x="63.623047" xlink:href="#DejaVuSans-46"/>
       <use x="95.410156" xlink:href="#DejaVuSans-48"/>
       <use x="159.033203" xlink:href="#DejaVuSans-48"/>
      </g>
     </g>
    </g>
    <g id="xtick_6">
     <g id="line2d_11">
      <path clip-path="url(#pc9fe153cd0)" d="M 276.741818 307.584 
L 276.741818 41.472 
" style="fill:none;stroke:#b0b0b0;stroke-linecap:square;stroke-width:0.8;"/>
     </g>
     <g id="line2d_12">
      <g>
       <use style="stroke:#000000;stroke-width:0.8;" x="276.741818" xlink:href="#m8b49188acc" y="307.584"/>
      </g>
     </g>
     <g id="text_6">
      <!-- 0.25 -->
      <g transform="translate(265.609006 322.182437)scale(0.1 -0.1)">
       <use xlink:href="#DejaVuSans-48"/>
       <use x="63.623047" xlink:href="#DejaVuSans-46"/>
       <use x="95.410156" xlink:href="#DejaVuSans-50"/>
       <use x="159.033203" xlink:href="#DejaVuSans-53"/>
      </g>
     </g>
    </g>
    <g id="xtick_7">
     <g id="line2d_13">
      <path clip-path="url(#pc9fe153cd0)" d="M 317.323636 307.584 
L 317.323636 41.472 
" style="fill:none;stroke:#b0b0b0;stroke-linecap:square;stroke-width:0.8;"/>
     </g>
     <g id="line2d_14">
      <g>
       <use style="stroke:#000000;stroke-width:0.8;" x="317.323636" xlink:href="#m8b49188acc" y="307.584"/>
      </g>
     </g>
     <g id="text_7">
      <!-- 0.50 -->
      <g transform="translate(306.190824 322.182437)scale(0.1 -0.1)">
       <use xlink:href="#DejaVuSans-48"/>
       <use x="63.623047" xlink:href="#DejaVuSans-46"/>
       <use x="95.410156" xlink:href="#DejaVuSans-53"/>
       <use x="159.033203" xlink:href="#DejaVuSans-48"/>
      </g>
     </g>
    </g>
    <g id="xtick_8">
     <g id="line2d_15">
      <path clip-path="url(#pc9fe153cd0)" d="M 357.905455 307.584 
L 357.905455 41.472 
" style="fill:none;stroke:#b0b0b0;stroke-linecap:square;stroke-width:0.8;"/>
     </g>
     <g id="line2d_16">
      <g>
       <use style="stroke:#000000;stroke-width:0.8;" x="357.905455" xlink:href="#m8b49188acc" y="307.584"/>
      </g>
     </g>
     <g id="text_8">
      <!-- 0.75 -->
      <g transform="translate(346.772642 322.182437)scale(0.1 -0.1)">
       <use xlink:href="#DejaVuSans-48"/>
       <use x="63.623047" xlink:href="#DejaVuSans-46"/>
       <use x="95.410156" xlink:href="#DejaVuSans-55"/>
       <use x="159.033203" xlink:href="#DejaVuSans-53"/>
      </g>
     </g>
    </g>
    <g id="xtick_9">
     <g id="line2d_17">
      <path clip-path="url(#pc9fe153cd0)" d="M 398.487273 307.584 
L 398.487273 41.472 
" style="fill:none;stroke:#b0b0b0;stroke-linecap:square;stroke-width:0.8;"/>
     </g>
     <g id="line2d_18">
      <g>
       <use style="stroke:#000000;stroke-width:0.8;" x="398.487273" xlink:href="#m8b49188acc" y="307.584"/>
      </g>
     </g>
     <g id="text_9">
      <!-- 1.00 -->
      <g transform="translate(387.35446 322.182437)scale(0.1 -0.1)">
       <use xlink:href="#DejaVuSans-49"/>
       <use x="63.623047" xlink:href="#DejaVuSans-46"/>
       <use x="95.410156" xlink:href="#DejaVuSans-48"/>
       <use x="159.033203" xlink:href="#DejaVuSans-48"/>
      </g>
     </g>
    </g>
    <g id="text_10">
     <!-- $x$ -->
     <defs>
      <path d="M 60.015625 54.6875 
L 34.90625 27.875 
L 50.296875 0 
L 39.984375 0 
L 28.421875 21.6875 
L 8.296875 0 
L -2.59375 0 
L 24.3125 28.8125 
L 10.015625 54.6875 
L 20.3125 54.6875 
L 30.8125 34.90625 
L 49.125 54.6875 
z
" id="DejaVuSans-Oblique-120"/>
     </defs>
     <g transform="translate(233.16 335.860562)scale(0.1 -0.1)">
      <use transform="translate(0 0.3125)" xlink:href="#DejaVuSans-Oblique-120"/>
     </g>
    </g>
   </g>
   <g id="matplotlib.axis_2">
    <g id="ytick_1">
     <g id="line2d_19">
      <path clip-path="url(#pc9fe153cd0)" d="M 57.6 267.412868 
L 414.72 267.412868 
" style="fill:none;stroke:#b0b0b0;stroke-linecap:square;stroke-width:0.8;"/>
     </g>
     <g id="line2d_20">
      <defs>
       <path d="M 0 0 
L -3.5 0 
" id="mcb44ca9f82" style="stroke:#000000;stroke-width:0.8;"/>
      </defs>
      <g>
       <use style="stroke:#000000;stroke-width:0.8;" x="57.6" xlink:href="#mcb44ca9f82" y="267.412868"/>
      </g>
     </g>
     <g id="text_11">
      <!-- 0.0 -->
      <g transform="translate(34.696875 271.212087)scale(0.1 -0.1)">
       <use xlink:href="#DejaVuSans-48"/>
       <use x="63.623047" xlink:href="#DejaVuSans-46"/>
       <use x="95.410156" xlink:href="#DejaVuSans-48"/>
      </g>
     </g>
    </g>
    <g id="ytick_2">
     <g id="line2d_21">
      <path clip-path="url(#pc9fe153cd0)" d="M 57.6 212.831483 
L 414.72 212.831483 
" style="fill:none;stroke:#b0b0b0;stroke-linecap:square;stroke-width:0.8;"/>
     </g>
     <g id="line2d_22">
      <g>
       <use style="stroke:#000000;stroke-width:0.8;" x="57.6" xlink:href="#mcb44ca9f82" y="212.831483"/>
      </g>
     </g>
     <g id="text_12">
      <!-- 0.5 -->
      <g transform="translate(34.696875 216.630702)scale(0.1 -0.1)">
       <use xlink:href="#DejaVuSans-48"/>
       <use x="63.623047" xlink:href="#DejaVuSans-46"/>
       <use x="95.410156" xlink:href="#DejaVuSans-53"/>
      </g>
     </g>
    </g>
    <g id="ytick_3">
     <g id="line2d_23">
      <path clip-path="url(#pc9fe153cd0)" d="M 57.6 158.250099 
L 414.72 158.250099 
" style="fill:none;stroke:#b0b0b0;stroke-linecap:square;stroke-width:0.8;"/>
     </g>
     <g id="line2d_24">
      <g>
       <use style="stroke:#000000;stroke-width:0.8;" x="57.6" xlink:href="#mcb44ca9f82" y="158.250099"/>
      </g>
     </g>
     <g id="text_13">
      <!-- 1.0 -->
      <g transform="translate(34.696875 162.049317)scale(0.1 -0.1)">
       <use xlink:href="#DejaVuSans-49"/>
       <use x="63.623047" xlink:href="#DejaVuSans-46"/>
       <use x="95.410156" xlink:href="#DejaVuSans-48"/>
      </g>
     </g>
    </g>
    <g id="ytick_4">
     <g id="line2d_25">
      <path clip-path="url(#pc9fe153cd0)" d="M 57.6 103.668714 
L 414.72 103.668714 
" style="fill:none;stroke:#b0b0b0;stroke-linecap:square;stroke-width:0.8;"/>
     </g>
     <g id="line2d_26">
      <g>
       <use style="stroke:#000000;stroke-width:0.8;" x="57.6" xlink:href="#mcb44ca9f82" y="103.668714"/>
      </g>
     </g>
     <g id="text_14">
      <!-- 1.5 -->
      <g transform="translate(34.696875 107.467933)scale(0.1 -0.1)">
       <use xlink:href="#DejaVuSans-49"/>
       <use x="63.623047" xlink:href="#DejaVuSans-46"/>
       <use x="95.410156" xlink:href="#DejaVuSans-53"/>
      </g>
     </g>
    </g>
    <g id="ytick_5">
     <g id="line2d_27">
      <path clip-path="url(#pc9fe153cd0)" d="M 57.6 49.087329 
L 414.72 49.087329 
" style="fill:none;stroke:#b0b0b0;stroke-linecap:square;stroke-width:0.8;"/>
     </g>
     <g id="line2d_28">
      <g>
       <use style="stroke:#000000;stroke-width:0.8;" x="57.6" xlink:href="#mcb44ca9f82" y="49.087329"/>
      </g>
     </g>
     <g id="text_15">
      <!-- 2.0 -->
      <g transform="translate(34.696875 52.886548)scale(0.1 -0.1)">
       <use xlink:href="#DejaVuSans-50"/>
       <use x="63.623047" xlink:href="#DejaVuSans-46"/>
       <use x="95.410156" xlink:href="#DejaVuSans-48"/>
      </g>
     </g>
    </g>
    <g id="text_16">
     <!-- $f(x),P_n(x)$ -->
     <defs>
      <path d="M 47.796875 75.984375 
L 46.390625 68.5 
L 37.796875 68.5 
Q 32.90625 68.5 30.6875 66.578125 
Q 28.46875 64.65625 27.390625 59.515625 
L 26.421875 54.6875 
L 41.21875 54.6875 
L 39.890625 47.703125 
L 25.09375 47.703125 
L 15.828125 0 
L 6.78125 0 
L 16.109375 47.703125 
L 7.515625 47.703125 
L 8.796875 54.6875 
L 17.390625 54.6875 
L 18.109375 58.5 
Q 19.96875 68.171875 24.625 72.078125 
Q 29.296875 75.984375 39.3125 75.984375 
z
" id="DejaVuSans-Oblique-102"/>
      <path d="M 31 75.875 
Q 24.46875 64.65625 21.28125 53.65625 
Q 18.109375 42.671875 18.109375 31.390625 
Q 18.109375 20.125 21.3125 9.0625 
Q 24.515625 -2 31 -13.1875 
L 23.1875 -13.1875 
Q 15.875 -1.703125 12.234375 9.375 
Q 8.59375 20.453125 8.59375 31.390625 
Q 8.59375 42.28125 12.203125 53.3125 
Q 15.828125 64.359375 23.1875 75.875 
z
" id="DejaVuSans-40"/>
      <path d="M 8.015625 75.875 
L 15.828125 75.875 
Q 23.140625 64.359375 26.78125 53.3125 
Q 30.421875 42.28125 30.421875 31.390625 
Q 30.421875 20.453125 26.78125 9.375 
Q 23.140625 -1.703125 15.828125 -13.1875 
L 8.015625 -13.1875 
Q 14.5 -2 17.703125 9.0625 
Q 20.90625 20.125 20.90625 31.390625 
Q 20.90625 42.671875 17.703125 53.65625 
Q 14.5 64.65625 8.015625 75.875 
z
" id="DejaVuSans-41"/>
      <path d="M 11.71875 12.40625 
L 22.015625 12.40625 
L 22.015625 4 
L 14.015625 -11.625 
L 7.71875 -11.625 
L 11.71875 4 
z
" id="DejaVuSans-44"/>
      <path d="M 16.890625 72.90625 
L 39.703125 72.90625 
Q 49.65625 72.90625 54.875 68.265625 
Q 60.109375 63.625 60.109375 54.6875 
Q 60.109375 42.671875 52.390625 35.984375 
Q 44.671875 29.296875 30.71875 29.296875 
L 18.3125 29.296875 
L 12.59375 0 
L 2.6875 0 
z
M 25.203125 64.796875 
L 19.921875 37.40625 
L 32.328125 37.40625 
Q 40.71875 37.40625 45.203125 41.703125 
Q 49.703125 46 49.703125 54 
Q 49.703125 59.125 46.65625 61.953125 
Q 43.609375 64.796875 38.09375 64.796875 
z
" id="DejaVuSans-Oblique-80"/>
      <path d="M 55.71875 33.015625 
L 49.3125 0 
L 40.28125 0 
L 46.6875 32.671875 
Q 47.125 34.96875 47.359375 36.71875 
Q 47.609375 38.484375 47.609375 39.5 
Q 47.609375 43.609375 45.015625 45.890625 
Q 42.4375 48.1875 37.796875 48.1875 
Q 30.5625 48.1875 25.34375 43.375 
Q 20.125 38.578125 18.5 30.328125 
L 12.5 0 
L 3.515625 0 
L 14.109375 54.6875 
L 23.09375 54.6875 
L 21.296875 46.09375 
Q 25.046875 50.828125 30.3125 53.40625 
Q 35.59375 56 41.40625 56 
Q 48.640625 56 52.609375 52.09375 
Q 56.59375 48.1875 56.59375 41.109375 
Q 56.59375 39.359375 56.375 37.359375 
Q 56.15625 35.359375 55.71875 33.015625 
z
" id="DejaVuSans-Oblique-110"/>
     </defs>
     <g transform="translate(28.617187 197.978)rotate(-90)scale(0.1 -0.1)">
      <use transform="translate(0 0.015625)" xlink:href="#DejaVuSans-Oblique-102"/>
      <use transform="translate(35.205078 0.015625)" xlink:href="#DejaVuSans-40"/>
      <use transform="translate(74.21875 0.015625)" xlink:href="#DejaVuSans-Oblique-120"/>
      <use transform="translate(133.398438 0.015625)" xlink:href="#DejaVuSans-41"/>
      <use transform="translate(172.412109 0.015625)" xlink:href="#DejaVuSans-44"/>
      <use transform="translate(223.681641 0.015625)" xlink:href="#DejaVuSans-Oblique-80"/>
      <use transform="translate(283.984375 -16.390625)scale(0.7)" xlink:href="#DejaVuSans-Oblique-110"/>
      <use transform="translate(331.083984 0.015625)" xlink:href="#DejaVuSans-40"/>
      <use transform="translate(370.097656 0.015625)" xlink:href="#DejaVuSans-Oblique-120"/>
      <use transform="translate(429.277344 0.015625)" xlink:href="#DejaVuSans-41"/>
     </g>
    </g>
   </g>
   <g id="line2d_29">
    <path clip-path="url(#pc9fe153cd0)" d="M 73.832727 263.2143 
L 88.864233 262.355377 
L 101.493295 261.416859 
L 112.271825 260.398103 
L 121.589411 259.298994 
L 129.73824 258.11869 
L 136.945571 256.854658 
L 143.389964 255.502435 
L 149.185047 254.062957 
L 154.444451 252.531005 
L 159.265571 250.897558 
L 163.697105 249.163791 
L 167.803985 247.32081 
L 171.634909 245.36048 
L 175.238575 243.268502 
L 178.647447 241.033658 
L 181.893993 238.639728 
L 184.994444 236.078256 
L 187.997498 233.307733 
L 190.903156 230.323498 
L 193.743884 227.085902 
L 196.552145 223.54421 
L 199.327942 219.682889 
L 202.119971 215.414558 
L 204.976931 210.632973 
L 207.94752 205.217566 
L 211.1616 198.882032 
L 215.008756 190.777959 
L 223.741964 172.182846 
L 226.095709 167.820888 
L 228.011171 164.719861 
L 229.650676 162.468873 
L 231.111622 160.827363 
L 232.426473 159.674933 
L 233.627695 158.910229 
L 234.747753 158.456272 
L 235.80288 158.263306 
L 236.841775 158.298218 
L 237.880669 158.555878 
L 238.968262 159.060816 
L 240.120785 159.851049 
L 241.354473 160.97491 
L 242.718022 162.529749 
L 244.243898 164.623163 
L 245.9808 167.401742 
L 248.026124 171.114607 
L 250.590895 176.260088 
L 254.567913 184.806982 
L 260.80128 198.150711 
L 264.258851 205.001698 
L 267.359302 210.661333 
L 270.297425 215.570134 
L 273.170618 219.942539 
L 276.011345 223.865447 
L 278.868305 227.434417 
L 281.757731 230.690125 
L 284.712087 233.684431 
L 287.747607 236.444013 
L 290.880524 238.991801 
L 294.143302 241.358433 
L 297.568407 243.566603 
L 301.172073 245.62392 
L 304.986764 247.544863 
L 309.061178 249.346353 
L 313.444015 251.038732 
L 318.183971 252.627581 
L 323.329745 254.115295 
L 328.978735 255.513568 
L 335.212102 256.823384 
L 342.143476 258.048268 
L 349.90272 259.189382 
L 358.684625 260.251402 
L 368.716451 261.23532 
L 380.306618 262.142767 
L 393.860945 262.974511 
L 398.487273 263.2143 
L 398.487273 263.2143 
" style="fill:none;stroke:#1f77b4;stroke-linecap:square;stroke-width:1.5;"/>
   </g>
   <g id="line2d_30">
    <path clip-path="url(#pc9fe153cd0)" d="M 73.832727 263.2143 
L 75.001484 207.002699 
L 76.121542 163.357433 
L 77.192902 129.918187 
L 78.199331 105.081909 
L 79.140829 86.985566 
L 80.017396 74.127254 
L 80.829033 65.29893 
L 81.559505 59.634292 
L 82.192582 56.311621 
L 82.728262 54.55455 
L 83.166545 53.783009 
L 83.507433 53.57157 
L 83.799622 53.64688 
L 84.124276 53.995046 
L 84.530095 54.801456 
L 85.033309 56.337694 
L 85.666385 59.044963 
L 86.445556 63.438058 
L 87.387055 70.099278 
L 88.555811 80.069185 
L 90.032989 94.732565 
L 92.045847 117.145065 
L 100.113513 209.389547 
L 102.142604 228.871556 
L 103.960669 244.266532 
L 105.63264 256.587521 
L 107.174749 266.355882 
L 108.603229 274.04371 
L 109.950545 280.12082 
L 111.200465 284.773225 
L 112.369222 288.301012 
L 113.456815 290.903573 
L 114.463244 292.757772 
L 115.388509 294.01784 
L 116.248844 294.828542 
L 117.044247 295.286009 
L 117.807185 295.4762 
L 118.570124 295.437325 
L 119.365527 295.168328 
L 120.225862 294.633352 
L 121.183593 293.764002 
L 122.271185 292.461472 
L 123.521105 290.601046 
L 124.998284 287.980015 
L 126.783884 284.330503 
L 129.121396 279.006464 
L 138.617542 256.79602 
L 140.792727 252.575907 
L 142.740655 249.26859 
L 144.526255 246.663324 
L 146.198225 244.608372 
L 147.7728 243.016298 
L 149.282444 241.798524 
L 150.743389 240.899136 
L 152.188102 240.267505 
L 153.632815 239.876713 
L 155.109993 239.706915 
L 156.668335 239.754871 
L 158.340305 240.032723 
L 160.223302 240.578374 
L 162.463418 241.469348 
L 165.742429 243.041854 
L 170.401222 245.249475 
L 172.738735 246.102478 
L 174.702895 246.589109 
L 176.472262 246.802181 
L 178.111767 246.779395 
L 179.686342 246.536824 
L 181.228451 246.073627 
L 182.77056 245.374754 
L 184.328902 244.419783 
L 185.919709 243.180654 
L 187.575447 241.604245 
L 189.312349 239.637138 
L 191.146647 237.21761 
L 193.110807 234.251231 
L 195.237295 230.627611 
L 197.59104 226.162015 
L 200.236975 220.648756 
L 203.402356 213.513157 
L 207.866356 202.842127 
L 214.846429 186.176786 
L 218.011811 179.224356 
L 220.609047 174.034148 
L 222.881629 169.971162 
L 224.926953 166.756756 
L 226.777484 164.248359 
L 228.48192 162.299684 
L 230.056495 160.824564 
L 231.533673 159.735745 
L 232.929687 158.976632 
L 234.260771 158.501719 
L 235.543156 158.276665 
L 236.809309 158.279535 
L 238.075462 158.506034 
L 239.357847 158.962143 
L 240.688931 159.674203 
L 242.084945 160.677583 
L 243.562124 162.018188 
L 245.152931 163.771582 
L 246.857367 165.990115 
L 248.707898 168.77241 
L 250.753222 172.262828 
L 253.025804 176.595198 
L 255.639273 182.075186 
L 258.804655 189.255671 
L 263.528378 200.593084 
L 269.794211 215.537509 
L 273.056989 222.732901 
L 275.751622 228.157369 
L 278.137833 232.477094 
L 280.296785 235.940635 
L 282.293411 238.736262 
L 284.160175 240.97806 
L 285.929542 242.762255 
L 287.601513 244.141181 
L 289.224785 245.196673 
L 290.79936 245.959628 
L 292.357702 246.470742 
L 293.932276 246.753034 
L 295.539316 246.814843 
L 297.22752 246.65568 
L 299.061818 246.254162 
L 301.123375 245.567883 
L 303.65568 244.476812 
L 312.518749 240.437452 
L 314.450444 239.932921 
L 316.138647 239.716506 
L 317.696989 239.738538 
L 319.174167 239.982617 
L 320.602647 240.44605 
L 322.014895 241.1408 
L 323.443375 242.096622 
L 324.90432 243.34832 
L 326.413964 244.940404 
L 328.004771 246.949299 
L 329.692975 249.448445 
L 331.51104 252.546429 
L 333.523898 256.430348 
L 335.828945 261.382036 
L 338.767069 268.26143 
L 345.61728 284.505729 
L 347.565207 288.439809 
L 349.139782 291.143778 
L 350.454633 292.984304 
L 351.590924 294.21087 
L 352.58112 294.96617 
L 353.457687 295.364777 
L 354.253091 295.487968 
L 354.999796 295.38214 
L 355.746502 295.048213 
L 356.50944 294.457742 
L 357.321076 293.537629 
L 358.197644 292.187557 
L 359.139142 290.303418 
L 360.145571 287.766651 
L 361.216931 284.443882 
L 362.369455 280.12082 
L 363.603142 274.599771 
L 364.917993 267.665971 
L 366.33024 258.986208 
L 367.856116 248.162931 
L 369.495622 234.882636 
L 371.297455 218.401634 
L 373.326545 197.703549 
L 375.777687 170.27922 
L 383.212276 85.31531 
L 384.640756 72.430259 
L 385.777047 64.062304 
L 386.68608 58.886421 
L 387.416553 55.886787 
L 388.000931 54.332054 
L 388.439215 53.708322 
L 388.763869 53.568 
L 389.039825 53.675771 
L 389.348247 54.05467 
L 389.7216 54.896022 
L 390.176116 56.517973 
L 390.711796 59.328234 
L 391.32864 63.86129 
L 392.010415 70.624808 
L 392.75712 80.340533 
L 393.568756 93.907567 
L 394.445324 112.442756 
L 395.386822 137.330055 
L 396.377018 169.693446 
L 397.415913 211.253125 
L 398.487273 263.2143 
L 398.487273 263.2143 
" style="fill:none;stroke:#ff7f0e;stroke-linecap:square;stroke-width:1.5;"/>
   </g>
   <g id="patch_3">
    <path d="M 57.6 307.584 
L 57.6 41.472 
" style="fill:none;stroke:#000000;stroke-linecap:square;stroke-linejoin:miter;stroke-width:0.8;"/>
   </g>
   <g id="patch_4">
    <path d="M 414.72 307.584 
L 414.72 41.472 
" style="fill:none;stroke:#000000;stroke-linecap:square;stroke-linejoin:miter;stroke-width:0.8;"/>
   </g>
   <g id="patch_5">
    <path d="M 57.6 307.584 
L 414.72 307.584 
" style="fill:none;stroke:#000000;stroke-linecap:square;stroke-linejoin:miter;stroke-width:0.8;"/>
   </g>
   <g id="patch_6">
    <path d="M 57.6 41.472 
L 414.72 41.472 
" style="fill:none;stroke:#000000;stroke-linecap:square;stroke-linejoin:miter;stroke-width:0.8;"/>
   </g>
   <g id="text_17">
    <!-- 原函数与牛顿插值多项式 -->
    <defs>
     <path d="M 17.96875 67.578125 
Q 17.96875 72.65625 17.578125 78.90625 
L 23.4375 75.78125 
L 76.5625 75.78125 
L 82.421875 81.640625 
L 90.625 73.4375 
L 23.4375 73.4375 
L 23.4375 39.84375 
Q 23.828125 26.5625 21.09375 15.234375 
Q 18.359375 3.90625 7.421875 -7.8125 
L 6.25 -7.03125 
Q 14.0625 4.6875 16.203125 15.03125 
Q 18.359375 25.390625 17.96875 37.890625 
z
M 43.359375 1.953125 
Q 48.046875 1.5625 52.34375 1.359375 
Q 56.640625 1.171875 56.640625 5.078125 
L 56.640625 30.078125 
L 40.234375 30.078125 
L 40.234375 27.34375 
L 34.765625 25 
Q 35.15625 31.25 35.15625 43.15625 
Q 35.15625 55.078125 34.765625 62.5 
L 40.234375 59.765625 
L 49.609375 59.765625 
Q 53.125 67.96875 54.296875 73.046875 
L 61.328125 69.53125 
Q 58.59375 67.96875 56.4375 65.8125 
Q 54.296875 63.671875 51.953125 59.765625 
L 76.5625 59.765625 
L 79.296875 63.671875 
L 85.15625 58.984375 
L 82.421875 56.640625 
L 82.421875 37.5 
Q 82.421875 33.203125 82.8125 27.734375 
L 77.34375 25.390625 
L 77.34375 30.078125 
L 61.71875 30.078125 
L 61.71875 2.734375 
Q 62.109375 -4.6875 53.90625 -7.421875 
Q 53.515625 -1.953125 43.359375 0.390625 
z
M 40.234375 57.421875 
L 40.234375 46.09375 
L 77.34375 46.09375 
L 77.34375 57.421875 
z
M 40.234375 43.75 
L 40.234375 32.421875 
L 77.34375 32.421875 
L 77.34375 43.75 
z
M 43.359375 22.265625 
L 50 16.40625 
Q 45.703125 14.84375 37.890625 8.203125 
Q 30.078125 1.5625 21.09375 -3.125 
L 20.3125 -1.953125 
Q 27.734375 3.90625 33.984375 10.546875 
Q 40.234375 17.1875 43.359375 22.265625 
z
M 66.796875 20.3125 
Q 89.84375 10.9375 90.8125 8 
Q 91.796875 5.078125 91.796875 3.125 
Q 91.796875 0.78125 91.203125 -0.78125 
Q 90.625 -2.34375 89.84375 -2.34375 
Q 89.0625 -2.34375 87.5 0 
Q 84.765625 3.90625 79.296875 8.984375 
Q 73.828125 14.0625 66.40625 18.75 
z
" id="SimSun-21407"/>
     <path d="M 47.65625 35.546875 
L 47.65625 46.875 
Q 47.65625 53.90625 47.265625 59.375 
L 51.171875 56.640625 
L 69.53125 69.921875 
L 25.78125 69.921875 
Q 20.703125 69.921875 16.40625 68.75 
L 12.890625 72.265625 
L 69.53125 72.265625 
L 74.609375 76.171875 
L 80.46875 68.359375 
Q 76.171875 67.578125 71.09375 65.234375 
Q 66.015625 62.890625 53.125 55.46875 
L 55.46875 53.90625 
L 52.734375 51.953125 
L 52.734375 37.5 
Q 66.40625 50.390625 69.921875 56.25 
L 76.171875 49.21875 
L 72.265625 48.828125 
Q 56.640625 37.890625 53.125 35.546875 
Q 71.484375 26.171875 73.234375 23.234375 
Q 75 20.3125 75 17.96875 
Q 75 16.015625 74.21875 14.453125 
Q 73.4375 12.890625 73.046875 12.890625 
Q 71.484375 12.890625 68.359375 17.96875 
Q 63.671875 25 52.734375 33.59375 
L 52.734375 11.328125 
Q 52.734375 5.46875 44.921875 2.34375 
Q 44.53125 7.03125 34.375 10.15625 
L 34.375 11.71875 
Q 43.75 10.546875 45.703125 10.9375 
Q 47.65625 11.328125 47.65625 13.28125 
L 47.65625 32.8125 
Q 28.90625 20.3125 25.390625 16.015625 
L 19.921875 21.875 
Q 24.609375 23.046875 32.609375 26.953125 
Q 40.625 30.859375 47.65625 35.546875 
z
M 26.5625 54.296875 
L 27.734375 55.46875 
Q 36.71875 50 38.671875 47.265625 
Q 40.625 44.53125 40.625 43.359375 
Q 40.625 41.40625 39.0625 39.453125 
Q 37.5 37.5 36.71875 37.5 
Q 35.546875 37.5 34.765625 40.234375 
Q 33.59375 44.921875 26.5625 54.296875 
z
M 80.46875 0 
L 80.46875 33.984375 
Q 80.46875 42.578125 80.078125 51.953125 
L 89.453125 47.65625 
L 85.9375 44.53125 
L 85.9375 8.203125 
Q 85.9375 1.5625 86.328125 -6.25 
L 80.46875 -9.375 
L 80.46875 -2.34375 
L 19.53125 -2.34375 
L 15.625 -5.859375 
L 10.546875 -0.78125 
L 13.671875 1.953125 
L 13.671875 37.109375 
Q 13.671875 43.75 13.28125 53.515625 
L 22.65625 49.21875 
L 19.140625 46.484375 
L 19.140625 0 
z
" id="SimSun-20989"/>
     <path d="M 29.296875 23.828125 
Q 26.171875 18.75 23.4375 14.0625 
Q 28.515625 12.890625 35.546875 11.328125 
Q 39.0625 15.234375 42.578125 23.828125 
z
M 13.28125 76.5625 
Q 20.703125 71.875 22.265625 69.53125 
Q 23.828125 67.1875 23.828125 66.015625 
Q 23.828125 64.0625 22.453125 62.109375 
Q 21.09375 60.15625 20.3125 60.15625 
Q 19.140625 60.15625 17.96875 64.0625 
Q 16.40625 69.53125 12.109375 75.78125 
z
M 46.875 77.734375 
L 53.90625 73.046875 
Q 50.78125 72.265625 48.4375 69.140625 
Q 45.703125 66.015625 39.453125 59.765625 
L 38.28125 60.546875 
Q 45.703125 72.265625 46.875 77.734375 
z
M 29.296875 82.03125 
L 37.890625 78.125 
L 34.765625 75.390625 
L 34.765625 57.421875 
L 44.53125 57.421875 
L 48.828125 61.71875 
L 55.46875 55.078125 
L 34.765625 55.078125 
L 34.765625 51.5625 
Q 43.75 49.609375 45.890625 47.84375 
Q 48.046875 46.09375 48.046875 43.359375 
Q 48.046875 42.1875 47.65625 40.421875 
Q 47.265625 38.671875 46.484375 38.671875 
Q 45.703125 38.671875 43.75 41.40625 
Q 40.625 45.703125 34.765625 49.609375 
L 34.765625 37.5 
L 30.078125 34.375 
L 35.546875 32.03125 
Q 33.59375 31.25 30.46875 26.171875 
L 42.578125 26.171875 
L 45.3125 29.6875 
L 51.171875 24.609375 
L 47.65625 22.65625 
Q 43.75 13.671875 40.625 10.15625 
Q 46.875 8.59375 49.015625 6.828125 
Q 51.171875 5.078125 51.171875 2.34375 
Q 51.171875 -0.390625 50 -0.390625 
Q 48.828125 -0.390625 47.265625 1.171875 
Q 42.96875 4.296875 37.5 6.640625 
Q 23.828125 -4.296875 5.078125 -7.8125 
L 4.6875 -6.640625 
Q 22.65625 -0.78125 32.8125 8.59375 
Q 25 11.328125 17.578125 12.5 
Q 19.140625 14.84375 23.828125 23.828125 
L 18.75 23.828125 
Q 13.671875 23.828125 9.375 22.65625 
L 5.859375 26.171875 
L 24.609375 26.171875 
Q 26.171875 30.078125 27.734375 35.546875 
L 29.6875 34.765625 
L 29.6875 50.78125 
Q 19.140625 38.671875 5.46875 32.03125 
L 4.6875 33.203125 
Q 19.140625 43.359375 26.5625 55.078125 
L 19.53125 55.078125 
Q 14.453125 55.078125 10.15625 53.90625 
L 6.640625 57.421875 
L 29.6875 57.421875 
Q 29.6875 71.484375 29.296875 82.03125 
z
M 61.328125 55.078125 
Q 63.28125 32.421875 70.703125 17.1875 
Q 76.953125 30.46875 78.515625 55.078125 
z
M 63.28125 82.03125 
L 72.265625 76.953125 
Q 69.140625 75.78125 67.578125 72.265625 
Q 66.015625 68.75 61.71875 57.421875 
L 83.984375 57.421875 
L 88.671875 62.109375 
L 95.703125 55.078125 
L 84.375 55.078125 
Q 82.03125 26.171875 74.21875 12.109375 
Q 83.203125 1.171875 95.3125 -1.5625 
L 95.3125 -3.125 
Q 87.890625 -4.296875 87.5 -7.8125 
Q 77.34375 -0.78125 70.703125 8.203125 
Q 57.8125 -4.296875 39.84375 -10.15625 
L 39.0625 -8.984375 
Q 57.03125 -0.78125 67.578125 12.5 
Q 60.15625 30.859375 59.765625 52.734375 
Q 55.859375 42.578125 48.4375 33.59375 
L 47.265625 34.375 
Q 56.640625 50 63.28125 82.03125 
z
" id="SimSun-25968"/>
     <path d="M 5.859375 19.53125 
L 58.59375 19.53125 
L 63.671875 24.609375 
L 71.09375 17.1875 
L 18.359375 17.1875 
Q 13.671875 17.1875 9.375 16.015625 
z
M 26.5625 40.625 
Q 28.125 64.453125 28.3125 69.53125 
Q 28.515625 74.609375 28.515625 81.25 
L 37.5 76.953125 
L 34.375 74.609375 
L 33.59375 60.15625 
L 79.296875 60.15625 
L 84.375 65.234375 
L 91.796875 57.8125 
L 33.59375 57.8125 
L 32.421875 39.453125 
L 78.515625 39.453125 
L 81.640625 44.140625 
L 88.671875 39.0625 
L 85.15625 35.9375 
Q 84.375 21.484375 82.8125 10.734375 
Q 81.25 0 77.140625 -3.703125 
Q 73.046875 -7.421875 66.40625 -8.984375 
Q 66.796875 -3.90625 53.515625 0 
L 53.90625 1.953125 
Q 62.5 0 68.75 0 
Q 75 0 76.953125 11.515625 
Q 78.90625 23.046875 79.296875 37.109375 
L 32.8125 37.109375 
L 29.6875 33.203125 
L 23.4375 37.890625 
L 26.5625 40.625 
z
" id="SimSun-19982"/>
     <path d="M 47.65625 -9.375 
Q 48.046875 -2.34375 48.046875 27.734375 
L 19.140625 27.734375 
Q 14.0625 27.734375 9.765625 26.5625 
L 6.25 30.078125 
L 48.046875 30.078125 
L 48.046875 55.46875 
L 26.953125 55.46875 
Q 18.359375 41.015625 10.9375 33.984375 
L 9.765625 34.765625 
Q 17.1875 46.09375 21.28125 56.828125 
Q 25.390625 67.578125 26.5625 74.21875 
L 35.9375 69.53125 
L 32.8125 67.96875 
Q 28.90625 60.546875 27.734375 57.8125 
L 48.046875 57.8125 
Q 48.046875 77.734375 47.65625 81.25 
L 57.421875 76.953125 
L 53.90625 74.21875 
L 53.90625 57.8125 
L 74.21875 57.8125 
L 79.6875 63.28125 
L 86.71875 55.46875 
L 53.90625 55.46875 
L 53.90625 30.078125 
L 78.515625 30.078125 
L 85.15625 36.71875 
L 94.140625 27.734375 
L 53.90625 27.734375 
Q 53.90625 1.5625 54.296875 -6.25 
z
" id="SimSun-29275"/>
     <path d="M 42.1875 46.484375 
Q 42.1875 32.03125 42.578125 26.5625 
L 37.5 22.65625 
L 37.5 26.5625 
L 27.34375 26.5625 
L 27.34375 3.90625 
L 44.921875 13.28125 
L 45.703125 12.109375 
Q 27.34375 -1.171875 25.390625 -4.6875 
L 21.09375 0 
Q 22.65625 1.953125 22.65625 5.46875 
L 22.65625 26.5625 
L 13.28125 26.5625 
L 10.546875 23.4375 
L 5.46875 27.734375 
L 8.203125 30.078125 
Q 8.203125 44.53125 7.8125 52.734375 
L 15.234375 49.21875 
L 12.890625 46.875 
L 12.890625 28.90625 
L 22.65625 28.90625 
L 22.65625 60.9375 
L 17.578125 60.9375 
Q 12.5 60.9375 8.203125 59.765625 
L 4.6875 63.28125 
L 22.65625 63.28125 
Q 22.65625 72.265625 22.265625 81.640625 
L 30.46875 78.125 
L 27.34375 75.390625 
L 27.34375 63.28125 
L 38.28125 63.28125 
L 42.1875 67.1875 
L 48.046875 60.9375 
L 27.34375 60.9375 
L 27.34375 28.90625 
L 37.5 28.90625 
Q 37.5 44.53125 37.109375 52.34375 
L 44.921875 48.828125 
z
M 50.78125 12.890625 
Q 51.171875 23.046875 51.171875 36.515625 
Q 51.171875 50 50.78125 61.71875 
L 56.640625 58.59375 
L 63.28125 58.59375 
Q 65.234375 69.53125 65.625 73.828125 
L 57.03125 73.828125 
Q 51.953125 73.828125 47.65625 72.65625 
L 44.140625 76.171875 
L 85.15625 76.171875 
L 89.453125 80.46875 
L 95.703125 73.828125 
L 72.65625 73.828125 
Q 70.3125 69.921875 65.234375 58.59375 
L 83.203125 58.59375 
L 86.71875 62.109375 
L 91.40625 57.421875 
L 88.671875 55.46875 
L 88.671875 31.25 
Q 88.671875 24.609375 89.0625 16.796875 
L 83.59375 14.453125 
L 83.59375 56.25 
L 56.25 56.25 
L 56.25 16.40625 
z
M 76.171875 44.53125 
L 72.65625 41.796875 
Q 72.265625 22.65625 69.71875 14.0625 
Q 67.1875 5.46875 60.34375 0.390625 
Q 53.515625 -4.6875 38.28125 -9.765625 
L 37.890625 -8.203125 
Q 55.078125 -0.78125 60.34375 6.046875 
Q 65.625 12.890625 66.59375 24.609375 
Q 67.578125 36.328125 67.1875 49.609375 
z
M 72.65625 11.71875 
Q 89.453125 4.296875 91.796875 1.359375 
Q 94.140625 -1.5625 94.140625 -4.296875 
Q 94.140625 -5.859375 93.546875 -7.421875 
Q 92.96875 -8.984375 92.1875 -8.984375 
Q 91.015625 -8.984375 89.84375 -7.03125 
Q 87.5 -3.515625 83.78125 0.578125 
Q 80.078125 4.6875 71.875 10.546875 
z
" id="SimSun-39039"/>
     <path d="M 88.671875 36.328125 
Q 88.671875 4.6875 89.0625 -5.078125 
L 83.59375 -7.03125 
L 83.59375 0 
L 44.140625 0 
L 44.140625 -6.640625 
L 38.671875 -8.984375 
Q 39.0625 0 39.0625 17.96875 
Q 39.0625 35.9375 38.671875 41.796875 
L 44.53125 39.0625 
Q 52.734375 44.53125 54.6875 47.65625 
L 59.375 40.625 
Q 54.296875 40.625 44.140625 36.71875 
L 44.140625 22.65625 
L 50 22.65625 
L 53.90625 26.5625 
L 58.984375 20.3125 
L 44.140625 20.3125 
L 44.140625 2.34375 
L 61.328125 2.34375 
L 61.328125 53.125 
L 42.1875 53.125 
L 38.671875 52.34375 
L 35.546875 55.46875 
L 61.328125 55.46875 
L 61.328125 69.140625 
Q 50.390625 68.359375 40.234375 67.96875 
L 40.234375 69.53125 
Q 54.296875 71.09375 66.203125 73.828125 
Q 78.125 76.5625 81.25 78.515625 
L 87.109375 71.875 
Q 78.515625 71.484375 66.40625 69.53125 
L 66.40625 55.46875 
L 85.15625 55.46875 
L 89.453125 59.765625 
L 95.703125 53.125 
L 66.40625 53.125 
L 66.40625 2.34375 
L 83.59375 2.34375 
L 83.59375 20.703125 
L 77.34375 20.703125 
L 73.828125 19.921875 
L 70.703125 23.046875 
L 83.59375 23.046875 
L 83.59375 38.671875 
L 76.953125 38.671875 
L 73.4375 37.890625 
L 70.3125 41.015625 
L 82.8125 41.015625 
L 86.328125 44.53125 
L 92.1875 38.671875 
z
M 25.390625 39.84375 
L 36.71875 46.09375 
L 37.5 44.53125 
L 25.390625 35.9375 
L 25.390625 0 
Q 25.390625 -6.640625 17.1875 -9.765625 
Q 15.625 -4.6875 5.859375 -1.5625 
L 5.859375 0 
Q 17.578125 -1.5625 18.9375 -1.171875 
Q 20.3125 -0.78125 20.3125 1.5625 
L 20.3125 32.421875 
Q 9.375 24.609375 8.203125 21.484375 
L 3.515625 28.90625 
Q 7.8125 30.078125 20.3125 37.109375 
L 20.3125 56.25 
L 10.15625 56.25 
L 6.640625 55.46875 
L 3.515625 58.59375 
L 20.3125 58.59375 
Q 20.3125 71.484375 19.921875 81.25 
L 28.90625 76.953125 
L 25.390625 73.828125 
L 25.390625 58.59375 
L 28.125 58.59375 
L 32.03125 62.5 
L 37.890625 56.25 
L 25.390625 56.25 
z
" id="SimSun-25554"/>
     <path d="M 23.828125 10.15625 
Q 23.828125 -3.515625 24.21875 -8.203125 
L 18.359375 -10.15625 
Q 18.75 3.90625 18.75 8.59375 
L 18.75 47.265625 
Q 11.71875 35.9375 5.078125 28.90625 
L 3.90625 29.6875 
Q 11.328125 41.015625 17.1875 55.078125 
Q 23.046875 69.140625 26.171875 81.25 
L 34.375 76.171875 
L 30.46875 73.828125 
Q 24.21875 59.375 22.265625 54.296875 
L 26.953125 51.5625 
L 23.828125 49.21875 
z
M 44.921875 50.390625 
L 44.921875 38.671875 
L 75 38.671875 
L 75 50.390625 
z
M 44.921875 36.328125 
L 44.921875 24.609375 
L 75 24.609375 
L 75 36.328125 
z
M 44.921875 22.265625 
L 44.921875 10.546875 
L 75 10.546875 
L 75 22.265625 
z
M 44.921875 8.203125 
L 44.921875 -3.515625 
L 75 -3.515625 
L 75 8.203125 
z
M 55.46875 66.40625 
Q 55.859375 75.390625 55.46875 81.640625 
L 64.453125 77.34375 
L 61.328125 75 
L 60.9375 66.40625 
L 78.515625 66.40625 
L 83.59375 71.484375 
L 91.015625 64.0625 
L 60.9375 64.0625 
L 60.546875 52.734375 
L 74.21875 52.734375 
L 77.734375 56.640625 
L 83.59375 51.5625 
L 80.078125 49.21875 
L 80.078125 -3.515625 
L 83.59375 -3.515625 
L 88.671875 1.5625 
L 96.09375 -5.859375 
L 38.28125 -5.859375 
Q 33.203125 -5.859375 28.90625 -7.03125 
L 25.390625 -3.515625 
L 39.84375 -3.515625 
L 39.84375 39.84375 
Q 39.84375 44.53125 39.453125 55.859375 
L 44.921875 52.734375 
L 55.078125 52.734375 
L 55.46875 64.0625 
L 43.75 64.0625 
Q 38.671875 64.0625 34.375 62.890625 
L 30.859375 66.40625 
z
" id="SimSun-20540"/>
     <path d="M 42.96875 66.015625 
L 38.28125 63.28125 
Q 46.484375 58.59375 47.65625 56.640625 
Q 48.828125 54.6875 48.828125 53.125 
Q 48.828125 51.171875 47.265625 49.40625 
Q 45.703125 47.65625 45.3125 47.65625 
Q 44.140625 47.65625 43.359375 50.78125 
Q 42.1875 55.078125 37.109375 62.5 
Q 32.03125 59.375 25.96875 56.25 
Q 19.921875 53.125 12.109375 50 
L 11.328125 51.5625 
Q 26.5625 58.984375 36.125 67.375 
Q 45.703125 75.78125 49.21875 81.640625 
L 55.859375 75.78125 
L 52.34375 74.609375 
L 44.921875 68.359375 
L 75 68.359375 
L 79.296875 72.65625 
L 86.328125 65.625 
L 82.03125 64.0625 
Q 70.703125 53.515625 54.484375 44.328125 
Q 38.28125 35.15625 9.375 31.25 
L 8.984375 32.8125 
Q 28.125 36.328125 44.53125 43.75 
Q 60.9375 51.171875 75 66.015625 
z
M 53.125 42.96875 
L 59.765625 36.71875 
L 55.859375 35.546875 
Q 54.6875 34.375 49.609375 30.46875 
L 80.078125 30.46875 
L 83.984375 34.375 
L 90.625 27.734375 
L 86.328125 25.78125 
Q 66.796875 5.46875 47.65625 -1.171875 
Q 28.515625 -7.8125 8.59375 -9.375 
L 8.59375 -7.8125 
Q 30.46875 -4.6875 48.234375 3.125 
Q 66.015625 10.9375 80.078125 28.125 
L 47.65625 28.125 
Q 33.984375 17.96875 15.234375 11.328125 
L 14.453125 12.890625 
Q 26.171875 18.75 35.734375 25.578125 
Q 45.3125 32.421875 53.125 42.96875 
z
M 41.015625 23.046875 
Q 48.046875 17.578125 49.21875 15.03125 
Q 50.390625 12.5 50.390625 11.328125 
Q 50.390625 8.984375 48.625 7.21875 
Q 46.875 5.46875 46.09375 5.46875 
Q 44.53125 5.46875 44.140625 8.984375 
Q 43.359375 14.453125 39.84375 21.875 
z
" id="SimSun-22810"/>
     <path d="M 26.5625 21.875 
L 42.1875 26.953125 
L 42.96875 25.390625 
Q 18.75 14.84375 14.84375 12.296875 
Q 10.9375 9.765625 10.15625 7.8125 
L 5.46875 15.625 
Q 9.765625 16.40625 21.484375 20.3125 
L 21.484375 64.0625 
L 18.359375 64.0625 
Q 13.28125 64.0625 8.984375 62.890625 
L 5.46875 66.40625 
L 31.640625 66.40625 
L 36.71875 71.09375 
L 42.96875 64.0625 
L 26.5625 64.0625 
z
M 45.3125 12.890625 
Q 45.703125 23.046875 45.703125 36.515625 
Q 45.703125 50 45.3125 61.71875 
L 50.78125 58.59375 
L 59.765625 58.59375 
Q 61.328125 69.53125 61.71875 73.828125 
L 50.78125 73.828125 
Q 45.703125 73.828125 41.40625 72.65625 
L 37.890625 76.171875 
L 81.640625 76.171875 
L 87.109375 81.25 
L 93.75 73.828125 
L 68.75 73.828125 
Q 66.40625 69.921875 61.71875 58.59375 
L 80.859375 58.59375 
L 84.375 62.5 
L 90.625 57.421875 
L 87.109375 55.078125 
L 87.109375 31.25 
Q 87.109375 24.609375 87.5 17.578125 
L 82.03125 14.453125 
L 82.03125 56.25 
L 50.78125 56.25 
L 50.78125 16.40625 
z
M 72.265625 45.3125 
L 69.140625 42.1875 
Q 69.140625 21.09375 65.8125 13.078125 
Q 62.5 5.078125 55.078125 -0.390625 
Q 47.65625 -5.859375 33.59375 -9.765625 
L 32.8125 -8.59375 
Q 51.171875 -0.390625 56.25 6.640625 
Q 61.328125 13.671875 62.6875 24.015625 
Q 64.0625 34.375 63.28125 49.609375 
z
M 69.53125 16.015625 
Q 85.9375 7.421875 89.0625 4.875 
Q 92.1875 2.34375 92.1875 -1.171875 
Q 92.1875 -3.125 91.40625 -5.65625 
Q 90.625 -8.203125 90.234375 -8.203125 
Q 89.0625 -8.203125 87.5 -5.46875 
Q 84.375 -0.78125 80.46875 3.703125 
Q 76.5625 8.203125 68.75 14.84375 
z
" id="SimSun-39033"/>
     <path d="M 34.375 8.984375 
L 57.03125 14.0625 
L 57.421875 12.5 
Q 33.59375 5.078125 23.234375 1.359375 
Q 12.890625 -2.34375 11.328125 -4.6875 
L 5.859375 2.734375 
Q 18.359375 5.078125 28.90625 7.421875 
L 28.90625 37.5 
L 22.265625 37.5 
Q 17.1875 37.5 12.890625 36.328125 
L 9.375 39.84375 
L 41.015625 39.84375 
L 46.09375 44.921875 
L 53.515625 37.5 
L 34.375 37.5 
z
M 69.140625 77.734375 
Q 76.5625 75 79.875 72.84375 
Q 83.203125 70.703125 83 67.96875 
Q 82.8125 65.234375 81.640625 64.0625 
Q 80.46875 62.890625 79.6875 62.890625 
Q 78.125 62.890625 76.953125 66.015625 
Q 74.609375 70.703125 68.359375 76.5625 
z
M 60.546875 74.609375 
Q 60.546875 65.625 60.9375 58.984375 
L 78.90625 58.984375 
L 85.15625 65.234375 
L 93.75 56.640625 
L 60.9375 56.640625 
Q 62.5 36.71875 66.203125 25.96875 
Q 69.921875 15.234375 74.796875 9.375 
Q 79.6875 3.515625 87.5 0.390625 
Q 88.671875 8.203125 90.234375 19.140625 
L 92.1875 19.140625 
Q 91.796875 3.90625 92.765625 -0.96875 
Q 93.75 -5.859375 95.3125 -8.203125 
Q 96.09375 -9.375 94.53125 -9.375 
Q 92.96875 -9.375 85.734375 -6.828125 
Q 78.515625 -4.296875 71.875 2.921875 
Q 65.234375 10.15625 60.9375 23.046875 
Q 56.640625 35.9375 55.46875 56.640625 
L 21.09375 56.640625 
Q 16.015625 56.640625 11.71875 55.46875 
L 8.203125 58.984375 
L 55.078125 58.984375 
Q 54.6875 70.3125 54.296875 81.640625 
L 64.0625 77.34375 
z
" id="SimSun-24335"/>
    </defs>
    <g transform="translate(153.66 35.472)scale(0.15 -0.15)">
     <use xlink:href="#SimSun-21407"/>
     <use x="100" xlink:href="#SimSun-20989"/>
     <use x="200" xlink:href="#SimSun-25968"/>
     <use x="300" xlink:href="#SimSun-19982"/>
     <use x="400" xlink:href="#SimSun-29275"/>
     <use x="500" xlink:href="#SimSun-39039"/>
     <use x="600" xlink:href="#SimSun-25554"/>
     <use x="700" xlink:href="#SimSun-20540"/>
     <use x="800" xlink:href="#SimSun-22810"/>
     <use x="900" xlink:href="#SimSun-39033"/>
     <use x="1000" xlink:href="#SimSun-24335"/>
    </g>
   </g>
   <g id="legend_1">
    <g id="patch_7">
     <path d="M 169.46 302.584 
L 302.86 302.584 
Q 304.86 302.584 304.86 300.584 
L 304.86 272.205875 
Q 304.86 270.205875 302.86 270.205875 
L 169.46 270.205875 
Q 167.46 270.205875 167.46 272.205875 
L 167.46 300.584 
Q 167.46 302.584 169.46 302.584 
z
" style="fill:#ffffff;opacity:0.8;stroke:#cccccc;stroke-linejoin:miter;"/>
    </g>
    <g id="line2d_31">
     <path d="M 171.46 278.304312 
L 191.46 278.304312 
" style="fill:none;stroke:#1f77b4;stroke-linecap:square;stroke-width:1.5;"/>
    </g>
    <g id="line2d_32"/>
    <g id="text_18">
     <!-- $Primitive\ Function$ -->
     <defs>
      <path d="M 44.578125 46.390625 
Q 43.21875 47.125 41.453125 47.515625 
Q 39.703125 47.90625 37.703125 47.90625 
Q 30.515625 47.90625 25.140625 42.453125 
Q 19.78125 37.015625 18.015625 27.875 
L 12.5 0 
L 3.515625 0 
L 14.203125 54.6875 
L 23.1875 54.6875 
L 21.484375 46.1875 
Q 25.046875 50.921875 30 53.453125 
Q 34.96875 56 40.578125 56 
Q 42.046875 56 43.453125 55.828125 
Q 44.875 55.671875 46.296875 55.28125 
z
" id="DejaVuSans-Oblique-114"/>
      <path d="M 18.3125 75.984375 
L 27.296875 75.984375 
L 25.09375 64.59375 
L 16.109375 64.59375 
z
M 14.203125 54.6875 
L 23.1875 54.6875 
L 12.5 0 
L 3.515625 0 
z
" id="DejaVuSans-Oblique-105"/>
      <path d="M 89.796875 33.015625 
L 83.40625 0 
L 74.421875 0 
L 80.71875 32.71875 
Q 81.109375 34.8125 81.296875 36.328125 
Q 81.5 37.84375 81.5 38.921875 
Q 81.5 43.3125 79.046875 45.75 
Q 76.609375 48.1875 72.21875 48.1875 
Q 65.671875 48.1875 60.546875 43.28125 
Q 55.421875 38.375 53.90625 30.515625 
L 47.90625 0 
L 38.921875 0 
L 45.3125 32.71875 
Q 45.703125 34.515625 45.890625 36.046875 
Q 46.09375 37.59375 46.09375 38.8125 
Q 46.09375 43.265625 43.65625 45.71875 
Q 41.21875 48.1875 36.921875 48.1875 
Q 30.28125 48.1875 25.140625 43.28125 
Q 20.015625 38.375 18.5 30.515625 
L 12.5 0 
L 3.515625 0 
L 14.203125 54.6875 
L 23.1875 54.6875 
L 21.484375 46.1875 
Q 25.140625 50.984375 30.046875 53.484375 
Q 34.96875 56 40.578125 56 
Q 46.53125 56 50.359375 52.875 
Q 54.203125 49.75 54.984375 44.1875 
Q 59.078125 49.953125 64.46875 52.96875 
Q 69.875 56 75.875 56 
Q 82.90625 56 86.734375 51.953125 
Q 90.578125 47.90625 90.578125 40.484375 
Q 90.578125 38.875 90.375 36.9375 
Q 90.1875 35.015625 89.796875 33.015625 
z
" id="DejaVuSans-Oblique-109"/>
      <path d="M 42.28125 54.6875 
L 40.921875 47.703125 
L 23 47.703125 
L 17.1875 18.015625 
Q 16.890625 16.359375 16.75 15.234375 
Q 16.609375 14.109375 16.609375 13.484375 
Q 16.609375 10.359375 18.484375 8.9375 
Q 20.359375 7.515625 24.515625 7.515625 
L 33.59375 7.515625 
L 32.078125 0 
L 23.484375 0 
Q 15.484375 0 11.546875 3.125 
Q 7.625 6.25 7.625 12.59375 
Q 7.625 13.71875 7.765625 15.0625 
Q 7.90625 16.40625 8.203125 18.015625 
L 14.015625 47.703125 
L 6.390625 47.703125 
L 7.8125 54.6875 
L 15.28125 54.6875 
L 18.3125 70.21875 
L 27.296875 70.21875 
L 24.3125 54.6875 
z
" id="DejaVuSans-Oblique-116"/>
      <path d="M 7.171875 54.6875 
L 16.703125 54.6875 
L 24.703125 8.203125 
L 50.875 54.6875 
L 60.40625 54.6875 
L 29.296875 0 
L 17.1875 0 
z
" id="DejaVuSans-Oblique-118"/>
      <path d="M 48.09375 32.234375 
Q 48.25 33.015625 48.3125 33.84375 
Q 48.390625 34.671875 48.390625 35.5 
Q 48.390625 41.453125 44.890625 44.921875 
Q 41.40625 48.390625 35.40625 48.390625 
Q 28.71875 48.390625 23.578125 44.15625 
Q 18.453125 39.9375 15.828125 32.171875 
z
M 55.90625 25.203125 
L 14.109375 25.203125 
Q 13.8125 23.34375 13.71875 22.265625 
Q 13.625 21.1875 13.625 20.40625 
Q 13.625 13.625 17.796875 9.90625 
Q 21.96875 6.203125 29.59375 6.203125 
Q 35.453125 6.203125 40.671875 7.515625 
Q 45.90625 8.84375 50.390625 11.375 
L 48.6875 2.484375 
Q 43.84375 0.53125 38.6875 -0.4375 
Q 33.546875 -1.421875 28.21875 -1.421875 
Q 16.84375 -1.421875 10.71875 4.015625 
Q 4.59375 9.46875 4.59375 19.484375 
Q 4.59375 28.03125 7.640625 35.375 
Q 10.6875 42.71875 16.609375 48.484375 
Q 20.40625 52.09375 25.65625 54.046875 
Q 30.90625 56 36.8125 56 
Q 46.09375 56 51.578125 50.4375 
Q 57.078125 44.875 57.078125 35.5 
Q 57.078125 33.25 56.78125 30.6875 
Q 56.5 28.125 55.90625 25.203125 
z
" id="DejaVuSans-Oblique-101"/>
      <path d="M 16.890625 72.90625 
L 58.6875 72.90625 
L 57.078125 64.59375 
L 25.09375 64.59375 
L 20.90625 43.109375 
L 49.8125 43.109375 
L 48.1875 34.8125 
L 19.28125 34.8125 
L 12.5 0 
L 2.6875 0 
z
" id="DejaVuSans-Oblique-70"/>
      <path d="M 6.6875 21.6875 
L 13.09375 54.6875 
L 22.125 54.6875 
L 15.71875 22.015625 
Q 15.234375 19.625 15.015625 17.921875 
Q 14.796875 16.21875 14.796875 15.09375 
Q 14.796875 10.9375 17.328125 8.65625 
Q 19.875 6.390625 24.515625 6.390625 
Q 31.734375 6.390625 37 11.265625 
Q 42.28125 16.15625 43.890625 24.421875 
L 49.90625 54.6875 
L 58.890625 54.6875 
L 48.296875 0 
L 39.3125 0 
L 41.109375 8.59375 
Q 37.3125 3.8125 32.0625 1.1875 
Q 26.8125 -1.421875 20.90625 -1.421875 
Q 13.71875 -1.421875 9.71875 2.515625 
Q 5.71875 6.453125 5.71875 13.484375 
Q 5.71875 14.9375 5.953125 17.140625 
Q 6.203125 19.34375 6.6875 21.6875 
z
" id="DejaVuSans-Oblique-117"/>
      <path d="M 53.609375 52.59375 
L 51.8125 43.703125 
Q 48.578125 46.046875 44.9375 47.21875 
Q 41.3125 48.390625 37.40625 48.390625 
Q 33.109375 48.390625 29.21875 46.875 
Q 25.34375 45.359375 22.703125 42.578125 
Q 18.5 38.328125 16.203125 32.609375 
Q 13.921875 26.90625 13.921875 20.796875 
Q 13.921875 13.421875 17.609375 9.8125 
Q 21.296875 6.203125 28.8125 6.203125 
Q 32.515625 6.203125 36.6875 7.328125 
Q 40.875 8.453125 45.40625 10.6875 
L 43.703125 1.8125 
Q 39.796875 0.203125 35.671875 -0.609375 
Q 31.546875 -1.421875 27.203125 -1.421875 
Q 16.3125 -1.421875 10.453125 4.015625 
Q 4.59375 9.46875 4.59375 19.578125 
Q 4.59375 28.078125 7.640625 35.234375 
Q 10.6875 42.390625 16.703125 48.09375 
Q 20.796875 52 26.3125 54 
Q 31.84375 56 38.375 56 
Q 42.1875 56 45.9375 55.140625 
Q 49.703125 54.296875 53.609375 52.59375 
z
" id="DejaVuSans-Oblique-99"/>
      <path d="M 25.390625 -1.421875 
Q 15.765625 -1.421875 10.171875 4.515625 
Q 4.59375 10.453125 4.59375 20.703125 
Q 4.59375 26.65625 6.515625 32.828125 
Q 8.453125 39.015625 11.53125 43.21875 
Q 16.359375 49.75 22.3125 52.875 
Q 28.265625 56 35.796875 56 
Q 45.125 56 50.859375 50.1875 
Q 56.59375 44.390625 56.59375 35.015625 
Q 56.59375 28.515625 54.6875 22.0625 
Q 52.78125 15.625 49.703125 11.375 
Q 44.921875 4.828125 38.96875 1.703125 
Q 33.015625 -1.421875 25.390625 -1.421875 
z
M 13.921875 21 
Q 13.921875 13.578125 17.015625 9.890625 
Q 20.125 6.203125 26.421875 6.203125 
Q 35.453125 6.203125 41.375 14.078125 
Q 47.3125 21.96875 47.3125 34.078125 
Q 47.3125 41.15625 44.140625 44.765625 
Q 40.96875 48.390625 34.8125 48.390625 
Q 29.734375 48.390625 25.78125 46.015625 
Q 21.828125 43.65625 18.703125 38.8125 
Q 16.40625 35.203125 15.15625 30.5625 
Q 13.921875 25.921875 13.921875 21 
z
" id="DejaVuSans-Oblique-111"/>
     </defs>
     <g transform="translate(199.46 281.804312)scale(0.1 -0.1)">
      <use transform="translate(0 0.015625)" xlink:href="#DejaVuSans-Oblique-80"/>
      <use transform="translate(60.302734 0.015625)" xlink:href="#DejaVuSans-Oblique-114"/>
      <use transform="translate(101.416016 0.015625)" xlink:href="#DejaVuSans-Oblique-105"/>
      <use transform="translate(129.199219 0.015625)" xlink:href="#DejaVuSans-Oblique-109"/>
      <use transform="translate(226.611328 0.015625)" xlink:href="#DejaVuSans-Oblique-105"/>
      <use transform="translate(254.394531 0.015625)" xlink:href="#DejaVuSans-Oblique-116"/>
      <use transform="translate(293.603516 0.015625)" xlink:href="#DejaVuSans-Oblique-105"/>
      <use transform="translate(321.386719 0.015625)" xlink:href="#DejaVuSans-Oblique-118"/>
      <use transform="translate(380.566406 0.015625)" xlink:href="#DejaVuSans-Oblique-101"/>
      <use transform="translate(474.560222 0.015625)" xlink:href="#DejaVuSans-Oblique-70"/>
      <use transform="translate(532.079753 0.015625)" xlink:href="#DejaVuSans-Oblique-117"/>
      <use transform="translate(595.45866 0.015625)" xlink:href="#DejaVuSans-Oblique-110"/>
      <use transform="translate(658.837566 0.015625)" xlink:href="#DejaVuSans-Oblique-99"/>
      <use transform="translate(713.818035 0.015625)" xlink:href="#DejaVuSans-Oblique-116"/>
      <use transform="translate(753.027019 0.015625)" xlink:href="#DejaVuSans-Oblique-105"/>
      <use transform="translate(780.810222 0.015625)" xlink:href="#DejaVuSans-Oblique-111"/>
      <use transform="translate(841.991863 0.015625)" xlink:href="#DejaVuSans-Oblique-110"/>
     </g>
    </g>
    <g id="line2d_33">
     <path d="M 171.46 292.984 
L 191.46 292.984 
" style="fill:none;stroke:#ff7f0e;stroke-linecap:square;stroke-width:1.5;"/>
    </g>
    <g id="line2d_34"/>
    <g id="text_19">
     <!-- $Newton\ Polynomials$ -->
     <defs>
      <path d="M 16.890625 72.90625 
L 30.171875 72.90625 
L 50.296875 10.40625 
L 62.5 72.90625 
L 72.125 72.90625 
L 57.90625 0 
L 44.578125 0 
L 24.515625 62.890625 
L 12.3125 0 
L 2.6875 0 
z
" id="DejaVuSans-Oblique-78"/>
      <path d="M 8.5 54.6875 
L 17.390625 54.6875 
L 19.671875 10.6875 
L 40.09375 54.6875 
L 50.484375 54.6875 
L 53.515625 10.6875 
L 72.90625 54.6875 
L 81.890625 54.6875 
L 56.890625 0 
L 46.390625 0 
L 43.703125 45.3125 
L 22.796875 0 
L 12.203125 0 
z
" id="DejaVuSans-Oblique-119"/>
      <path d="M 18.3125 75.984375 
L 27.296875 75.984375 
L 12.5 0 
L 3.515625 0 
z
" id="DejaVuSans-Oblique-108"/>
      <path d="M 24.8125 -5.078125 
Q 18.5625 -15.578125 14.625 -18.1875 
Q 10.6875 -20.796875 4.59375 -20.796875 
L -2.484375 -20.796875 
L -0.984375 -13.28125 
L 4.203125 -13.28125 
Q 7.953125 -13.28125 10.59375 -11.234375 
Q 13.234375 -9.1875 16.5 -3.21875 
L 19.28125 2 
L 7.171875 54.6875 
L 16.703125 54.6875 
L 25.78125 12.796875 
L 50.875 54.6875 
L 60.296875 54.6875 
z
" id="DejaVuSans-Oblique-121"/>
      <path d="M 53.71875 31.203125 
L 47.609375 0 
L 38.625 0 
L 40.28125 8.296875 
Q 36.328125 3.421875 31.265625 1 
Q 26.21875 -1.421875 20.015625 -1.421875 
Q 13.03125 -1.421875 8.5625 2.84375 
Q 4.109375 7.125 4.109375 13.8125 
Q 4.109375 23.390625 11.75 28.953125 
Q 19.390625 34.515625 32.8125 34.515625 
L 45.3125 34.515625 
L 45.796875 36.921875 
Q 45.90625 37.3125 45.953125 37.765625 
Q 46 38.234375 46 39.203125 
Q 46 43.5625 42.453125 45.96875 
Q 38.921875 48.390625 32.515625 48.390625 
Q 28.125 48.390625 23.5 47.265625 
Q 18.890625 46.140625 14.015625 43.890625 
L 15.578125 52.203125 
Q 20.65625 54.109375 25.515625 55.046875 
Q 30.375 56 34.90625 56 
Q 44.578125 56 49.625 51.796875 
Q 54.6875 47.609375 54.6875 39.59375 
Q 54.6875 37.984375 54.4375 35.8125 
Q 54.203125 33.640625 53.71875 31.203125 
z
M 44 27.484375 
L 35.015625 27.484375 
Q 23.96875 27.484375 18.671875 24.53125 
Q 13.375 21.578125 13.375 15.375 
Q 13.375 11.078125 16.078125 8.640625 
Q 18.796875 6.203125 23.578125 6.203125 
Q 30.90625 6.203125 36.375 11.453125 
Q 41.84375 16.703125 43.609375 25.484375 
z
" id="DejaVuSans-Oblique-97"/>
      <path d="M 50 53.078125 
L 48.296875 44.578125 
Q 44.734375 46.53125 40.765625 47.5 
Q 36.8125 48.484375 32.625 48.484375 
Q 25.53125 48.484375 21.453125 46.0625 
Q 17.390625 43.65625 17.390625 39.5 
Q 17.390625 34.671875 26.859375 32.078125 
Q 27.59375 31.890625 27.9375 31.78125 
L 30.8125 30.90625 
Q 39.796875 28.421875 42.796875 25.6875 
Q 45.796875 22.953125 45.796875 18.21875 
Q 45.796875 9.515625 38.890625 4.046875 
Q 31.984375 -1.421875 20.796875 -1.421875 
Q 16.453125 -1.421875 11.671875 -0.578125 
Q 6.890625 0.25 1.125 2 
L 2.875 11.28125 
Q 7.8125 8.734375 12.59375 7.421875 
Q 17.390625 6.109375 21.78125 6.109375 
Q 28.375 6.109375 32.5 8.9375 
Q 36.625 11.765625 36.625 16.109375 
Q 36.625 20.796875 25.78125 23.6875 
L 24.859375 23.921875 
L 21.78125 24.703125 
Q 14.9375 26.515625 11.765625 29.46875 
Q 8.59375 32.421875 8.59375 37.015625 
Q 8.59375 45.75 15.15625 50.875 
Q 21.734375 56 33.015625 56 
Q 37.453125 56 41.671875 55.265625 
Q 45.90625 54.546875 50 53.078125 
z
" id="DejaVuSans-Oblique-115"/>
     </defs>
     <g transform="translate(199.46 296.484)scale(0.1 -0.1)">
      <use transform="translate(0 0.015625)" xlink:href="#DejaVuSans-Oblique-78"/>
      <use transform="translate(74.804688 0.015625)" xlink:href="#DejaVuSans-Oblique-101"/>
      <use transform="translate(136.328125 0.015625)" xlink:href="#DejaVuSans-Oblique-119"/>
      <use transform="translate(218.115234 0.015625)" xlink:href="#DejaVuSans-Oblique-116"/>
      <use transform="translate(257.324219 0.015625)" xlink:href="#DejaVuSans-Oblique-111"/>
      <use transform="translate(318.505859 0.015625)" xlink:href="#DejaVuSans-Oblique-110"/>
      <use transform="translate(414.355144 0.015625)" xlink:href="#DejaVuSans-Oblique-80"/>
      <use transform="translate(474.657878 0.015625)" xlink:href="#DejaVuSans-Oblique-111"/>
      <use transform="translate(535.839519 0.015625)" xlink:href="#DejaVuSans-Oblique-108"/>
      <use transform="translate(563.622722 0.015625)" xlink:href="#DejaVuSans-Oblique-121"/>
      <use transform="translate(622.80241 0.015625)" xlink:href="#DejaVuSans-Oblique-110"/>
      <use transform="translate(686.181316 0.015625)" xlink:href="#DejaVuSans-Oblique-111"/>
      <use transform="translate(747.362957 0.015625)" xlink:href="#DejaVuSans-Oblique-109"/>
      <use transform="translate(844.775066 0.015625)" xlink:href="#DejaVuSans-Oblique-105"/>
      <use transform="translate(872.558269 0.015625)" xlink:href="#DejaVuSans-Oblique-97"/>
      <use transform="translate(933.837566 0.015625)" xlink:href="#DejaVuSans-Oblique-108"/>
      <use transform="translate(961.620769 0.015625)" xlink:href="#DejaVuSans-Oblique-115"/>
     </g>
    </g>
   </g>
  </g>
 </g>
 <defs>
  <clipPath id="pc9fe153cd0">
   <rect height="266.112" width="357.12" x="57.6" y="41.472"/>
  </clipPath>
 </defs>
</svg>
